Coordinates
version=1
nRows=7
nColumns=40
inDegrees=yes

Units are S.I. units (second, meters, Newtons, ...)
Angles are in degrees.

endheader
time	pelvis_tilt	pelvis_list	pelvis_rotation	pelvis_tx	pelvis_ty	pelvis_tz	hip_flexion_r	hip_adduction_r	hip_rotation_r	knee_angle_r	knee_angle_r_beta	ankle_angle_r	subtalar_angle_r	mtp_angle_r	hip_flexion_l	hip_adduction_l	hip_rotation_l	knee_angle_l	knee_angle_l_beta	ankle_angle_l	subtalar_angle_l	mtp_angle_l	lumbar_extension	lumbar_bending	lumbar_rotation	arm_flex_r	arm_add_r	arm_rot_r	elbow_flex_r	pro_sup_r	wrist_flex_r	wrist_dev_r	arm_flex_l	arm_add_l	arm_rot_l	elbow_flex_l	pro_sup_l	wrist_flex_l	wrist_dev_l
      6.60128571	     -3.55720403	     -1.39405643	     -3.90569184	      0.95345341	      0.91438310	      0.46772302	     27.85538866	     -3.29747939	    -15.79290107	      9.63040076	      9.63040076	      0.62363227	      9.19763871	      9.88619245	     -3.92207357	     -1.03680288	    -13.45364343	     10.02467429	     10.02467429	     18.00235690	     -5.84684471	     -9.10952757	    -11.99888267	      2.26123837	      1.59949546	    -19.97291822	    -14.94578594	    -15.81759807	     25.00780528	     46.38578261	      0.00000000	      0.00000000	     21.72023392	    -20.02979557	     -6.81776264	     91.14504902	     46.94400343	      0.00000000	      0.00000000
      6.61257143	     -3.68788798	     -1.70731705	     -3.85668837	      0.95574433	      0.91280685	      0.46973540	     27.69200548	     -2.77219414	    -15.97505108	     10.12616371	     10.12616371	      0.18205140	      9.04004344	      9.69488944	     -4.43955077	     -1.51099491	    -13.29197878	     10.19361336	     10.19361336	     18.37589199	     -5.96215628	     -9.08694725	    -11.67575194	      2.65210392	      1.61507069	    -20.71137875	    -14.98786662	    -15.80989758	     24.76726489	     46.38983958	      0.00000000	      0.00000000	     22.13558668	    -20.20786193	     -7.02553799	     91.74644010	     46.97593408	      0.00000000	      0.00000000
      6.62385714	     -3.69823524	     -1.99475235	     -3.79568998	      0.95819451	      0.91113550	      0.47204011	     27.41663074	     -2.24092105	    -15.62219513	     10.67140763	     10.67140763	     -2.42350653	      7.81874411	      2.64729755	     -4.57160573	     -2.20124632	    -13.79311020	     11.57888536	     11.57888536	     20.37395017	     -4.72657019	     -6.54955743	    -11.64460216	      2.90775478	      1.46133468	    -21.68670699	    -15.06268715	    -14.93296679	     26.10358633	     46.27404011	      0.00000000	      0.00000000	     21.44961031	    -20.10992200	     -8.12287425	     95.34289227	     47.26752787	      0.00000000	      0.00000000
      6.63514286	     -3.76295036	     -2.35108071	     -3.74265787	      0.96054497	      0.90988326	      0.47440836	     27.48680601	     -1.80687223	    -15.41099635	     12.03554459	     12.03554459	     -2.84283617	      6.95078187	      1.75058240	     -4.90990379	     -2.82608738	    -13.66730225	     12.26576240	     12.26576240	     20.83074504	     -4.93210680	     -6.34682078	    -11.49389040	      3.27788840	      1.68229611	    -22.20594601	    -14.94667781	    -14.82624570	     26.06282640	     46.26591560	      0.00000000	      0.00000000	     21.59097626	    -20.00943724	     -8.21727127	     96.68613951	     47.32147375	      0.00000000	      0.00000000
      6.64642857	     -3.84025563	     -2.70180497	     -3.67153927	      0.96289408	      0.90884272	      0.47692294	     27.61717922	     -1.38900254	    -14.97908117	     13.50934153	     13.50934153	     -3.30743046	      5.73857426	      0.39615251	     -5.09763338	     -3.51817420	    -13.63924822	     13.22852400	     13.22852400	     21.39744035	     -4.94681475	     -5.92076171	    -11.35517171	      3.62123499	      1.70884462	    -22.47511670	    -14.81288005	    -14.75848039	     26.27215238	     46.25252123	      0.00000000	      0.00000000	     21.41743966	    -19.99356742	     -8.48883422	     98.22793261	     47.39195115	      0.00000000	      0.00000000
      6.65771429	     -3.76999121	     -3.12343187	     -3.55893052	      0.96545458	      0.90836501	      0.47964776	     27.35661785	     -0.83562730	    -14.45515252	     14.52476775	     14.52476775	     -4.45201473	      4.11663586	     -3.13406909	     -5.28113859	     -4.43185253	    -14.08698218	     14.64042395	     14.64042395	     22.68204310	     -3.97400133	     -3.98059304	    -11.38680606	      4.01736951	      1.04409924	    -22.20962154	    -14.94548469	    -14.17299219	     26.76319976	     46.21038025	      0.00000000	      0.00000000	     20.38420735	    -20.20760016	     -9.78304956	    100.36121483	     47.62838198	      0.00000000	      0.00000000
      6.66900000	     -3.79032477	     -3.49615704	     -3.44403148	      0.96771241	      0.90814246	      0.48231608	     27.42978228	     -0.44992893	    -14.07197018	     16.04419305	     16.04419305	     -4.18830821	      3.04707978	     -3.48783484	     -5.29989045	     -5.21640171	    -13.90852140	     15.96912658	     15.96912658	     22.78534046	     -4.41041183	     -4.01840566	    -11.33222303	      4.36850507	      1.17944145	    -22.03194371	    -14.71282693	    -14.00169878	     26.73916569	     46.20394568	      0.00000000	      0.00000000	     20.25080771	    -20.00430978	     -9.80052506	    101.09044030	     47.66566643	      0.00000000	      0.00000000
